<svg width="7" height="26" viewBox="0 0 7 26" fill="none" xmlns="http://www.w3.org/2000/svg">
<path d="M6.46154 24.8077C6.56775 25.0626 6.44721 25.3553 6.19231 25.4615C5.93741 25.5677 5.64467 25.4472 5.53846 25.1923L6.46154 24.8077ZM1 13L0.538462 13.1923L0.458333 13L0.538462 12.8077L1 13ZM5.53846 0.807692C5.64467 0.552792 5.93741 0.432253 6.19231 0.53846C6.44721 0.644669 6.56775 0.937407 6.46154 1.19231L5.53846 0.807692ZM5.53846 25.1923L0.538462 13.1923L1.46154 12.8077L6.46154 24.8077L5.53846 25.1923ZM0.538462 12.8077L5.53846 0.807692L6.46154 1.19231L1.46154 13.1923L0.538462 12.8077Z" fill="white" fill-opacity="0.1"/>
</svg>
