<svg width="24" height="24" viewBox="0 0 24 24" fill="none" xmlns="http://www.w3.org/2000/svg">
<path d="M9.24606 16.4463C9.05079 16.6415 9.05079 16.9581 9.24606 17.1534C9.44132 17.3486 9.7579 17.3486 9.95316 17.1534L9.24606 16.4463ZM14.3996 11.9998L14.7532 12.3534L15.1067 11.9998L14.7532 11.6463L14.3996 11.9998ZM9.95316 6.84625C9.7579 6.65099 9.44132 6.65099 9.24606 6.84625C9.05079 7.04151 9.05079 7.3581 9.24606 7.55336L9.95316 6.84625ZM9.95316 17.1534L14.7532 12.3534L14.0461 11.6463L9.24606 16.4463L9.95316 17.1534ZM14.7532 11.6463L9.95316 6.84625L9.24606 7.55336L14.0461 12.3534L14.7532 11.6463Z" fill="#1D1D1B"/>
</svg>
