<svg width="24" height="24" viewBox="0 0 24 24" fill="none" xmlns="http://www.w3.org/2000/svg">
<path d="M7.55375 9.24654C7.35849 9.05128 7.0419 9.05128 6.84664 9.24654C6.65138 9.44181 6.65138 9.75839 6.84664 9.95365L7.55375 9.24654ZM12.0002 14.4001L11.6466 14.7537L12.0002 15.1072L12.3537 14.7537L12.0002 14.4001ZM17.1537 9.95365C17.349 9.75839 17.349 9.44181 17.1537 9.24654C16.9585 9.05128 16.6419 9.05128 16.4466 9.24654L17.1537 9.95365ZM6.84664 9.95365L11.6466 14.7537L12.3537 14.0465L7.55375 9.24654L6.84664 9.95365ZM12.3537 14.7537L17.1537 9.95365L16.4466 9.24654L11.6466 14.0465L12.3537 14.7537Z" fill="white"/>
</svg>
