<svg width="40" height="40" viewBox="0 0 40 40" fill="none" xmlns="http://www.w3.org/2000/svg">
<g clip-path="url(#clip0)">
<path d="M2.50062 2.72093C-0.642716 5.98593 0.000616923 9.45426 0.000616923 19.9909C0.000616923 28.7409 -1.52605 37.5126 6.46395 39.5776C8.95895 40.2193 31.0656 40.2193 33.5573 39.5743C36.8839 38.7159 39.5906 36.0176 39.9606 31.3126C40.0123 30.6559 40.0123 9.3376 39.959 8.6676C39.5656 3.65593 36.4806 0.767597 32.4156 0.182597C31.4839 0.0475969 31.2973 0.00759686 26.5173 -0.000736475C9.56228 0.00759686 5.84562 -0.747403 2.50062 2.72093Z" fill="url(#paint0_linear)"/>
<path d="M19.9974 5.23105C13.9457 5.23105 8.19908 4.69272 6.00408 10.3261C5.09742 12.6527 5.22908 15.6744 5.22908 20.0011C5.22908 23.7977 5.10742 27.3661 6.00408 29.6744C8.19408 35.3111 13.9874 34.7711 19.9941 34.7711C25.7891 34.7711 31.7641 35.3744 33.9858 29.6744C34.8941 27.3244 34.7607 24.3477 34.7607 20.0011C34.7607 14.2311 35.0791 10.5061 32.2807 7.70938C29.4474 4.87605 25.6157 5.23105 19.9907 5.23105H19.9974ZM18.6741 7.89272C31.2974 7.87272 32.9041 6.46939 32.0174 25.9644C31.7024 32.8594 26.4524 32.1027 19.9991 32.1027C8.23241 32.1027 7.89408 31.7661 7.89408 19.9944C7.89408 8.08605 8.82742 7.89938 18.6741 7.88938V7.89272ZM27.8807 10.3444C26.9024 10.3444 26.1091 11.1377 26.1091 12.1161C26.1091 13.0944 26.9024 13.8877 27.8807 13.8877C28.8591 13.8877 29.6524 13.0944 29.6524 12.1161C29.6524 11.1377 28.8591 10.3444 27.8807 10.3444ZM19.9974 12.416C15.8091 12.416 12.4141 15.8127 12.4141 20.0011C12.4141 24.1894 15.8091 27.5844 19.9974 27.5844C24.1857 27.5844 27.5791 24.1894 27.5791 20.0011C27.5791 15.8127 24.1857 12.416 19.9974 12.416ZM19.9974 15.0777C26.5057 15.0777 26.5141 24.9244 19.9974 24.9244C13.4907 24.9244 13.4807 15.0777 19.9974 15.0777Z" fill="white"/>
</g>
<defs>
<linearGradient id="paint0_linear" x1="2.57732" y1="37.4444" x2="39.7531" y2="5.26923" gradientUnits="userSpaceOnUse">
<stop stop-color="#FFDD55"/>
<stop offset="0.5" stop-color="#FF543E"/>
<stop offset="1" stop-color="#C837AB"/>
</linearGradient>
<clipPath id="clip0">
<rect width="40" height="40" fill="white"/>
</clipPath>
</defs>
</svg>
