<svg width="24" height="24" viewBox="0 0 24 24" fill="none" xmlns="http://www.w3.org/2000/svg">
<path d="M18.6464 20.3536C18.8417 20.5488 19.1583 20.5488 19.3536 20.3536C19.5488 20.1583 19.5488 19.8417 19.3536 19.6464L18.6464 20.3536ZM14.8704 11.1852C14.8704 13.7727 12.7727 15.8704 10.1852 15.8704V16.8704C13.325 16.8704 15.8704 14.325 15.8704 11.1852H14.8704ZM10.1852 15.8704C7.59763 15.8704 5.5 13.7727 5.5 11.1852H4.5C4.5 14.325 7.04534 16.8704 10.1852 16.8704V15.8704ZM5.5 11.1852C5.5 8.59763 7.59763 6.5 10.1852 6.5V5.5C7.04534 5.5 4.5 8.04534 4.5 11.1852H5.5ZM10.1852 6.5C12.7727 6.5 14.8704 8.59763 14.8704 11.1852H15.8704C15.8704 8.04534 13.325 5.5 10.1852 5.5V6.5ZM13.4981 15.2052L18.6464 20.3536L19.3536 19.6464L14.2052 14.4981L13.4981 15.2052Z" fill="#1D1D1B"/>
</svg>
