<svg width="50" height="100" viewBox="0 0 50 100" fill="none" xmlns="http://www.w3.org/2000/svg">
<g filter="url(#filter0_d)">
<path d="M19.1058 69.5519C18.8588 70.0459 19.0591 70.6466 19.553 70.8936C20.047 71.1406 20.6477 70.9403 20.8947 70.4464L19.1058 69.5519ZM30.0002 49.9991L30.8947 50.4464L31.1183 49.9991L30.8947 49.5519L30.0002 49.9991ZM20.8947 29.5519C20.6477 29.058 20.047 28.8577 19.553 29.1047C19.0591 29.3517 18.8588 29.9524 19.1058 30.4464L20.8947 29.5519ZM20.8947 70.4464L30.8947 50.4464L29.1058 49.5519L19.1058 69.5519L20.8947 70.4464ZM30.8947 49.5519L20.8947 29.5519L19.1058 30.4464L29.1058 50.4464L30.8947 49.5519Z" fill="white"/>
</g>
<defs>
<filter id="filter0_d" x="14" y="28.9989" width="22.1183" height="52.0004" filterUnits="userSpaceOnUse" color-interpolation-filters="sRGB">
<feFlood flood-opacity="0" result="BackgroundImageFix"/>
<feColorMatrix in="SourceAlpha" type="matrix" values="0 0 0 0 0 0 0 0 0 0 0 0 0 0 0 0 0 0 127 0" result="hardAlpha"/>
<feOffset dy="5"/>
<feGaussianBlur stdDeviation="2.5"/>
<feColorMatrix type="matrix" values="0 0 0 0 0 0 0 0 0 0 0 0 0 0 0 0 0 0 0.25 0"/>
<feBlend mode="normal" in2="BackgroundImageFix" result="effect1_dropShadow"/>
<feBlend mode="normal" in="SourceGraphic" in2="effect1_dropShadow" result="shape"/>
</filter>
</defs>
</svg>
