<svg width="40" height="40" viewBox="0 0 40 40" fill="none" xmlns="http://www.w3.org/2000/svg">
<path d="M14.226 20.7349C11.0541 20.7349 8.4916 23.2974 8.53847 26.438C8.56972 28.4536 9.6791 30.2036 11.3119 31.1802C10.7572 30.3286 10.4291 29.3208 10.4135 28.2349C10.3666 25.0943 12.9291 22.5317 16.101 22.5317C16.726 22.5317 17.3275 22.6333 17.89 22.813V16.5239C17.3041 16.438 16.7025 16.3911 16.101 16.3911C16.0697 16.3911 16.0463 16.3911 16.015 16.3911V21.0161C15.4525 20.8364 14.851 20.7349 14.226 20.7349Z" fill="#F00044"/>
<path d="M27.9368 1.875H27.8899H26.2649C26.7336 4.22656 28.054 6.27344 29.8977 7.66406C28.6868 6.0625 27.9524 4.0625 27.9368 1.875Z" fill="#F00044"/>
<path d="M37.4999 11.4458C36.8827 11.4458 36.2889 11.3833 35.703 11.2739V15.7817C33.578 15.7817 31.5155 15.3677 29.578 14.5396C28.328 14.0083 27.1639 13.3286 26.0936 12.5083L26.1249 26.4067C26.1093 29.5317 24.8749 32.4614 22.6405 34.6724C20.8202 36.4692 18.5155 37.6177 16.0155 37.9849C15.4296 38.0708 14.828 38.1177 14.2264 38.1177C11.5546 38.1177 9.00769 37.2505 6.93738 35.6489C7.17175 35.9302 7.42175 36.2036 7.69519 36.4692C9.94519 38.688 12.9296 39.9146 16.1093 39.9146C16.7108 39.9146 17.3124 39.8677 17.8983 39.7817C20.3983 39.4146 22.703 38.2661 24.5233 36.4692C26.7577 34.2583 27.9921 31.3286 28.0077 28.2036L27.8905 14.3052C28.953 15.1255 30.1171 15.813 31.3749 16.3364C33.3202 17.1567 35.3827 17.5786 37.4999 17.5786" fill="#F00044"/>
<path d="M7.6713 19.8521C9.89786 17.6411 12.8588 16.4146 16.0151 16.3911V14.7271C15.4291 14.6411 14.8276 14.5942 14.226 14.5942C11.0385 14.5942 8.0463 15.8208 5.7963 18.0552C3.58536 20.2505 2.31974 23.2505 2.32755 26.3677C2.32755 29.5083 3.56974 32.4536 5.81193 34.6802C6.1713 35.0317 6.53849 35.3599 6.92911 35.6567C5.16349 33.5552 4.20255 30.9302 4.19474 28.1646C4.20255 25.0474 5.46036 22.0474 7.6713 19.8521Z" fill="#08FFF9"/>
<path d="M35.703 11.2742V9.60229H35.6874C33.5155 9.60229 31.5155 8.88354 29.9061 7.66479C31.3046 9.50854 33.3514 10.821 35.703 11.2742Z" fill="#08FFF9"/>
<path d="M15.7811 33.7656C16.5233 33.8047 17.2342 33.7031 17.8905 33.4922C20.1561 32.75 21.7889 30.6406 21.7889 28.1562L21.7967 18.8594V1.875H26.2655C26.1483 1.28906 26.0858 0.695312 26.078 0.078125H19.9217V17.0547L19.9139 26.3516C19.9139 28.8359 18.2811 30.9453 16.0155 31.6875C15.3592 31.9062 14.6483 32.0078 13.9061 31.9609C12.9608 31.9062 12.078 31.625 11.3124 31.1719C12.2733 32.6562 13.9139 33.6641 15.7811 33.7656Z" fill="#08FFF9"/>
<path d="M16.015 37.9844C18.515 37.6172 20.8197 36.4688 22.64 34.6719C24.8744 32.4609 26.1088 29.5312 26.1244 26.4062L26.0932 12.5078C27.1557 13.3281 28.3197 14.0156 29.5776 14.5391C31.5229 15.3594 33.5854 15.7812 35.7026 15.7812V11.2734C33.351 10.8203 31.3041 9.50781 29.9057 7.66406C28.0619 6.27344 26.7338 4.22656 26.2729 1.875H21.7963V18.8516L21.7885 28.1484C21.7885 30.6328 20.1557 32.7422 17.89 33.4844C17.2338 33.7031 16.5229 33.8047 15.7807 33.7578C13.9057 33.6562 12.2729 32.6484 11.3119 31.1719C9.67911 30.2031 8.56974 28.4453 8.53849 26.4297C8.49161 23.2891 11.0541 20.7266 14.226 20.7266C14.851 20.7266 15.4525 20.8281 16.015 21.0078V16.3828C12.8588 16.4062 9.89786 17.6328 7.6713 19.8438C5.46036 22.0391 4.19474 25.0391 4.20255 28.1484C4.20255 30.9141 5.16349 33.5391 6.93693 35.6406C9.01505 37.2422 11.5541 38.1094 14.226 38.1094C14.8276 38.1172 15.4291 38.0703 16.015 37.9844Z" fill="black"/>
</svg>
