<svg width="24" height="24" viewBox="0 0 24 24" fill="none" xmlns="http://www.w3.org/2000/svg">
<path d="M8.39995 15H18L19.2 7.2H7.19995L8.39995 15ZM8.39995 15L6.59995 3.6H1.19995M11.4 18.6C11.4 19.5941 10.5941 20.4 9.59995 20.4C8.60584 20.4 7.79995 19.5941 7.79995 18.6C7.79995 17.6059 8.60584 16.8 9.59995 16.8C10.5941 16.8 11.4 17.6059 11.4 18.6ZM18.6 18.6C18.6 19.5941 17.7941 20.4 16.8 20.4C15.8058 20.4 15 19.5941 15 18.6C15 17.6059 15.8058 16.8 16.8 16.8C17.7941 16.8 18.6 17.6059 18.6 18.6Z" stroke="white" stroke-linecap="round" stroke-linejoin="round"/>
</svg>
