<svg width="170" height="170" viewBox="0 0 170 170" fill="none" xmlns="http://www.w3.org/2000/svg">
<rect width="170" height="170" fill="white"/>
<path d="M64 90.9068C73.8599 94.7342 101.796 94.1874 107 90.6334M64 90.9068C64 90.0866 64 87.6262 65.6433 87.6262M64 90.9068L64.2678 142.807M107 90.6334C107 89.8133 107 87.6262 105.904 87.6262M107 90.6334V143.627M105.904 87.6262C95.2229 90.36 75.5032 90.0866 65.6433 87.6262M105.904 87.6262C106.726 87.0794 107 85.7125 107 82.1585M65.6433 87.6262C64.8217 87.0794 64.8217 85.9859 64.8217 82.2689M107 82.1585V48.4893M107 82.1585C96.5628 84.0284 76.7116 83.8102 64.8217 82.2689M107 48.4893C97.6879 50.6764 74.4076 50.6764 64 48.4893M107 48.4893C99.6051 45.7555 92.2102 41.108 87.5541 34H83.9936C77.6943 42.7483 69.7516 46.5756 64 48.4893M64 48.4893V82.1585C64.2694 82.196 64.5433 82.2328 64.8217 82.2689M64.2678 142.807L64.2739 144.447C66.7389 152.649 106.452 151.008 107 144.447V143.627M64.2678 142.807C66.7389 148.001 101.522 147.728 107 143.627" stroke="#000000" stroke-width="3" stroke-linecap="round" stroke-linejoin="round"/>
</svg>
