<svg width="24" height="24" viewBox="0 0 24 24" fill="none" xmlns="http://www.w3.org/2000/svg">
<path d="M7.55375 14.7535C7.35849 14.9487 7.0419 14.9487 6.84664 14.7535C6.65138 14.5582 6.65138 14.2416 6.84664 14.0463L7.55375 14.7535ZM12.0002 9.5999L11.6466 9.24635L12.0002 8.8928L12.3537 9.24635L12.0002 9.5999ZM17.1537 14.0463C17.349 14.2416 17.349 14.5582 17.1537 14.7535C16.9585 14.9487 16.6419 14.9487 16.4466 14.7535L17.1537 14.0463ZM6.84664 14.0463L11.6466 9.24635L12.3537 9.95346L7.55375 14.7535L6.84664 14.0463ZM12.3537 9.24635L17.1537 14.0463L16.4466 14.7535L11.6466 9.95346L12.3537 9.24635Z" fill="#EF7D00"/>
</svg>
