<svg width="306" height="40" viewBox="0 0 306 40" fill="none" xmlns="http://www.w3.org/2000/svg">
<path d="M22.9196 1.65591H30.1222V14.5498L40.2669 1.65591H48.8199L35.7653 18.344L50.09 39.0514H41.6495L30.1222 22.4437V39.0514H22.9196V1.65591Z" fill="#CC1423"/>
<path d="M74.8006 11.3988H81.746V39.0515H74.8006V36.1254C73.4502 37.4116 72.0836 38.3441 70.7171 38.9068C69.3505 39.4695 67.8714 39.7589 66.2798 39.7589C62.7106 39.7589 59.6238 38.3763 57.0193 35.5949C54.4148 32.8296 53.1125 29.373 53.1125 25.2573C53.1125 20.9808 54.3666 17.492 56.8907 14.7589C59.4148 12.0258 62.4695 10.6592 66.0868 10.6592C67.7428 10.6592 69.3023 10.9808 70.7653 11.6078C72.2283 12.2348 73.5627 13.1833 74.8006 14.4373V11.3988ZM67.5016 17.0901C65.3634 17.0901 63.5788 17.8457 62.1479 19.373C60.7331 20.8843 60.0257 22.8296 60.0257 25.2091C60.0257 27.6045 60.7492 29.566 62.1962 31.1094C63.6431 32.6528 65.4116 33.4245 67.5338 33.4245C69.7203 33.4245 71.5209 32.6689 72.9518 31.1415C74.3826 29.6303 75.1061 27.6367 75.1061 25.1769C75.1061 22.7653 74.3826 20.82 72.9518 19.3248C71.5209 17.8296 69.7042 17.0901 67.5016 17.0901Z" fill="#CC1423"/>
<path d="M91.4727 0C92.6945 0 93.7396 0.434084 94.6077 1.31833C95.4759 2.20257 95.91 3.26367 95.91 4.51768C95.91 5.75563 95.4759 6.81672 94.6238 7.68489C93.7556 8.55305 92.7267 8.98714 91.537 8.98714C90.2991 8.98714 89.254 8.53698 88.3859 7.65273C87.5177 6.76849 87.0836 5.67524 87.0836 4.40515C87.0836 3.18328 87.5177 2.13826 88.3698 1.28617C89.2058 0.434084 90.2508 0 91.4727 0ZM88 11.3987H94.9454V39.0514H88V11.3987Z" fill="#CC1423"/>
<path d="M97.9357 11.3987H100.395C100.412 7.7653 100.476 5.62704 100.572 4.96787C100.765 3.44054 101.392 2.23475 102.486 1.35051C103.579 0.466263 105.122 0.0161018 107.132 0.0161018C108.579 0.0161018 110.203 0.353723 112.019 1.01289V6.30228C111.022 6.01289 110.203 5.86819 109.559 5.86819C108.74 5.86819 108.145 6.04504 107.775 6.38266C107.502 6.6399 107.373 7.17044 107.373 7.95823L107.341 11.4148H111.746V17.2669H107.341V39.0515H100.395V17.2669H97.9357V11.3987Z" fill="#CC1423"/>
<path d="M136.199 6.73637L130.926 11.3827C129.077 8.81032 127.196 7.52415 125.267 7.52415C124.334 7.52415 123.563 7.78139 122.968 8.27978C122.373 8.77817 122.084 9.34087 122.084 9.96788C122.084 10.5949 122.293 11.1897 122.727 11.7524C123.305 12.492 125.042 14.0997 127.952 16.5595C130.669 18.8264 132.309 20.2573 132.887 20.8521C134.334 22.3152 135.347 23.6978 135.958 25.0322C136.553 26.3666 136.859 27.8135 136.859 29.3891C136.859 32.4598 135.797 34.984 133.675 36.9936C131.553 38.9872 128.788 40 125.379 40C122.711 40 120.396 39.3409 118.418 38.0386C116.441 36.7364 114.752 34.6785 113.338 31.8811L119.318 28.2637C121.119 31.5756 123.193 33.2155 125.524 33.2155C126.746 33.2155 127.775 32.8618 128.611 32.1544C129.447 31.447 129.865 30.627 129.865 29.6946C129.865 28.8425 129.543 28.0065 128.916 27.1544C128.289 26.3023 126.907 25.0161 124.769 23.2637C120.701 19.9357 118.064 17.3795 116.875 15.5788C115.685 13.7782 115.09 11.9775 115.09 10.1769C115.09 7.58846 116.071 5.35373 118.048 3.50486C120.026 1.65598 122.469 0.723507 125.363 0.723507C127.228 0.723507 129.013 1.15759 130.701 2.02576C132.405 2.87785 134.222 4.45341 136.199 6.73637Z" fill="black"/>
<path d="M142.823 11.3987H149.768V14.582C150.958 13.2797 152.277 12.299 153.723 11.6559C155.17 11.0128 156.762 10.6913 158.466 10.6913C160.203 10.6913 161.762 11.1093 163.145 11.9614C164.527 12.8135 165.653 14.0514 166.505 15.6752C167.614 14.0514 168.965 12.8135 170.556 11.9614C172.164 11.1093 173.916 10.6913 175.814 10.6913C177.775 10.6913 179.511 11.1414 181.006 12.0578C182.502 12.9742 183.579 14.164 184.222 15.6431C184.881 17.1222 185.203 19.5177 185.203 22.8456V39.0675H178.209V25.0321C178.209 21.8971 177.823 19.7749 177.035 18.6656C176.248 17.5562 175.09 16.9935 173.531 16.9935C172.341 16.9935 171.28 17.3312 170.347 18.0064C169.399 18.6816 168.707 19.6141 168.257 20.8199C167.807 22.0096 167.566 23.9389 167.566 26.5755V39.0514H160.572V25.6591C160.572 23.1832 160.395 21.3987 160.026 20.2894C159.656 19.18 159.109 18.3601 158.386 17.8135C157.662 17.2668 156.778 16.9935 155.733 16.9935C154.576 16.9935 153.531 17.3312 152.582 18.0225C151.633 18.7138 150.942 19.6784 150.46 20.9003C149.994 22.1382 149.752 24.0836 149.752 26.7524V39.0514H142.807V11.3987H142.823Z" fill="black"/>
<path d="M204.817 10.6752C207.421 10.6752 209.881 11.3343 212.18 12.6366C214.479 13.9388 216.264 15.7073 217.55 17.9421C218.836 20.1768 219.479 22.5884 219.479 25.1929C219.479 27.7974 218.836 30.2411 217.534 32.508C216.232 34.7749 214.463 36.5594 212.228 37.8295C209.994 39.1157 207.518 39.7427 204.833 39.7427C200.862 39.7427 197.486 38.3279 194.672 35.5144C191.875 32.6848 190.46 29.2604 190.46 25.225C190.46 20.9003 192.051 17.299 195.219 14.4212C198 11.9292 201.199 10.6752 204.817 10.6752ZM204.929 17.2186C202.775 17.2186 200.974 17.9742 199.543 19.4694C198.113 20.9646 197.389 22.8938 197.389 25.225C197.389 27.6366 198.097 29.5819 199.511 31.0771C200.926 32.5723 202.727 33.3118 204.897 33.3118C207.068 33.3118 208.884 32.5562 210.315 31.045C211.762 29.5337 212.486 27.5884 212.486 25.225C212.486 22.8456 211.778 20.9324 210.363 19.4372C208.949 17.9581 207.132 17.2186 204.929 17.2186Z" fill="black"/>
<path d="M225.203 0.723381H232.148V22.7973L242.373 11.3986H251.087L239.174 24.6623L252.518 39.0674H243.9L232.148 26.3182V39.0674H225.203V0.723381Z" fill="black"/>
<path d="M283.064 27.2347H260.765C261.087 29.1961 261.955 30.7717 263.338 31.9292C264.736 33.0868 266.521 33.6656 268.691 33.6656C271.28 33.6656 273.514 32.7652 275.379 30.9485L281.232 33.6977C279.769 35.7717 278.032 37.299 275.99 38.2797C273.949 39.2604 271.537 39.7749 268.74 39.7749C264.399 39.7749 260.862 38.4083 258.145 35.6752C255.412 32.9421 254.045 29.5177 254.045 25.3858C254.045 21.1736 255.412 17.6688 258.129 14.8713C260.846 12.09 264.254 10.6913 268.354 10.6913C272.711 10.6913 276.248 12.09 278.981 14.8713C281.714 17.6527 283.08 21.3344 283.08 25.9164L283.064 27.2347ZM276.119 21.7685C275.653 20.225 274.752 18.971 273.402 18.0064C272.051 17.0418 270.492 16.5595 268.707 16.5595C266.778 16.5595 265.074 17.1061 263.611 18.1832C262.695 18.8585 261.842 20.0482 261.071 21.7685H276.119Z" fill="black"/>
</svg>
