<svg width="24" height="24" viewBox="0 0 24 24" fill="none" xmlns="http://www.w3.org/2000/svg">
<path d="M11.9999 7V19M11.9999 7C11.9999 7 7.12407 6.08579 3.99988 5.5M11.9999 7C11.9999 7 16.8757 6.08579 19.9999 5.5M11.9999 7L14.9999 11L19.9999 10.0625M11.9999 7L8.99988 11L3.99988 10.0625M11.9999 7L3.99988 5.5M11.9999 7L19.9999 5.5M11.9999 19L19.9999 17M11.9999 19L3.99988 17M19.9999 17C19.9999 17 19.9999 13.1666 19.9999 10.0625M19.9999 17V10.0625M3.99988 17C3.99988 17 3.99988 13.1666 3.99988 10.0625M3.99988 17V10.0625M3.99988 5.5C7.12407 4.91421 11.9999 4 11.9999 4M3.99988 5.5L0.999878 9.5L3.99988 10.0625M3.99988 5.5L11.9999 4M19.9999 5.5C16.8757 4.91421 11.9999 4 11.9999 4M19.9999 5.5L22.9999 9.5L19.9999 10.0625M19.9999 5.5L11.9999 4" stroke="white" stroke-linecap="round" stroke-linejoin="round"/>
</svg>
