<svg width="24" height="24" viewBox="0 0 24 24" fill="none" xmlns="http://www.w3.org/2000/svg">
<path d="M19.9995 10.5V19.5H15.9995M19.9995 10.5C21.1041 10.5 21.9995 9.60457 21.9995 8.5V7.5M19.9995 10.5C18.8949 10.5 17.9995 9.60457 17.9995 8.5M3.99951 10.5V19.5H7.99951M3.99951 10.5C5.10408 10.5 5.99951 9.60457 5.99951 8.5M3.99951 10.5C2.89494 10.5 1.99951 9.60457 1.99951 8.5V7.5M7.99951 19.5V13.5H11.9995M7.99951 19.5H11.9995M15.9995 19.5V13.5H11.9995M15.9995 19.5H11.9995M5.99951 8.5C5.99951 9.60457 6.89494 10.5 7.99951 10.5C9.10408 10.5 9.99951 9.60457 9.99951 8.5M5.99951 8.5V7.5M9.99951 8.5C9.99951 9.60457 10.8949 10.5 11.9995 10.5C13.1041 10.5 13.9995 9.60457 13.9995 8.5M9.99951 8.5V7.5M13.9995 8.5C13.9995 9.60457 14.8949 10.5 15.9995 10.5C17.1041 10.5 17.9995 9.60457 17.9995 8.5M13.9995 8.5V7.5M17.9995 8.5V7.5M11.9995 13.5V19.5M1.99951 19.5H21.9995M1.99951 7.5H21.9995M1.99951 7.5L2.99951 4.5H20.9995L21.9995 7.5" stroke="#000000" stroke-linecap="round" stroke-linejoin="round"/>
</svg>
