<svg width="24" height="24" viewBox="0 0 24 24" fill="none" xmlns="http://www.w3.org/2000/svg">
<path d="M9.24654 16.4463C9.05128 16.6415 9.05128 16.9581 9.24654 17.1534C9.44181 17.3486 9.75839 17.3486 9.95365 17.1534L9.24654 16.4463ZM14.4001 11.9998L14.7537 12.3534L15.1072 11.9998L14.7537 11.6463L14.4001 11.9998ZM9.95365 6.84625C9.75839 6.65099 9.44181 6.65099 9.24654 6.84625C9.05128 7.04151 9.05128 7.3581 9.24654 7.55336L9.95365 6.84625ZM9.95365 17.1534L14.7537 12.3534L14.0465 11.6463L9.24654 16.4463L9.95365 17.1534ZM14.7537 11.6463L9.95365 6.84625L9.24654 7.55336L14.0465 12.3534L14.7537 11.6463Z" fill="white"/>
</svg>
