<svg width="40" height="40" viewBox="0 0 40 40" fill="none" xmlns="http://www.w3.org/2000/svg">
<path d="M20 40C31.0457 40 40 31.0457 40 20C40 8.9543 31.0457 0 20 0C8.9543 0 0 8.9543 0 20C0 31.0457 8.9543 40 20 40Z" fill="#039BE5"/>
<path d="M9.1521 19.5673L28.4354 12.1323C29.3304 11.8089 30.1121 12.3506 29.8221 13.7039L29.8238 13.7023L26.5404 29.1706C26.2971 30.2673 25.6454 30.5339 24.7338 30.0173L19.7338 26.3323L17.3221 28.6556C17.0554 28.9223 16.8304 29.1473 16.3138 29.1473L16.6688 24.0589L25.9354 15.6873C26.3388 15.3323 25.8454 15.1323 25.3138 15.4856L13.8621 22.6956L8.92544 21.1556C7.85377 20.8156 7.83044 20.0839 9.1521 19.5673Z" fill="white"/>
</svg>
