<svg width="37" height="40" viewBox="0 0 37 40" fill="none" xmlns="http://www.w3.org/2000/svg">
<g clip-path="url(#clip0_506_180)">
<path fill-rule="evenodd" clip-rule="evenodd" d="M7.26928 30.6327H29.9604L33.5129 40H3.77637L7.26928 30.6327Z" fill="#E2E2E4"/>
<path fill-rule="evenodd" clip-rule="evenodd" d="M31.8256 38.3313H6.18684L8.17183 32.9979H7.43917L5.19434 39.0192H32.0854L31.8256 38.3313Z" fill="url(#paint0_linear_506_180)"/>
<path fill-rule="evenodd" clip-rule="evenodd" d="M29.278 31.6178H7.9499L7.69434 32.31H28.8009L30.8242 37.6433H31.5611L29.278 31.6178Z" fill="black"/>
<path fill-rule="evenodd" clip-rule="evenodd" d="M23.2889 33.9958L20.1836 23.9745L24.209 11.0488H31.8337L23.2889 33.9958Z" fill="black"/>
<path fill-rule="evenodd" clip-rule="evenodd" d="M23.2898 33.9957L20.1845 23.9744L24.2099 11.0403H31.8346L23.2898 33.9957ZM22.3441 34.2844L19.1494 23.9744L23.4772 10.0594H33.2744L23.2216 37.0488L22.3441 34.2844Z" fill="#E2E2E4"/>
<path fill-rule="evenodd" clip-rule="evenodd" d="M18.7736 28.5053L20.8949 35.2994H14.6587L5.4707 11.0488H13.3212L18.7736 28.5053Z" fill="url(#paint1_linear_506_180)"/>
<path fill-rule="evenodd" clip-rule="evenodd" d="M18.7912 28.501L20.921 35.295H14.6593L5.46702 11.0403H13.3218L18.7912 28.501ZM19.7368 28.208L22.2585 36.2759H13.9778L4.04004 10.0594H14.0502L19.7368 28.208Z" fill="#E2E2E4"/>
<path fill-rule="evenodd" clip-rule="evenodd" d="M0.227539 0H37.001L33.5124 9.37155H3.77582L0.227539 0Z" fill="#E2E2E4"/>
<path fill-rule="evenodd" clip-rule="evenodd" d="M20.8061 7.69417V8.38206H32.8183L33.0867 7.69417H20.8061ZM18.77 7.69417V8.38206H4.45762L2.17871 2.36932H2.91988L4.9347 7.69417H18.77Z" fill="black"/>
<path d="M1.6543 0.985107L1.91841 1.67725H34.5899L32.6049 7.00209H33.3418L35.5824 0.985107H1.6543Z" fill="url(#paint2_linear_506_180)"/>
<path fill-rule="evenodd" clip-rule="evenodd" d="M20.6953 8.78562C20.5079 9.78774 20.0649 10.6625 19.1576 11.9746C17.6837 14.0977 18.016 16.8111 18.5655 18.6412C18.6337 17.3334 18.9915 16.2421 20.312 14.3143C21.5175 12.5775 21.2661 10.1189 20.772 8.21661C20.755 8.41194 20.7294 8.59878 20.6953 8.78562Z" fill="url(#paint3_linear_506_180)"/>
<path fill-rule="evenodd" clip-rule="evenodd" d="M20.6954 8.7856C20.5079 9.78772 20.0649 10.6625 19.1576 11.9746C17.6838 14.0977 18.016 16.8111 18.5655 18.6412C18.6337 17.3334 18.9915 16.2421 20.312 14.3143C21.5175 12.5775 21.2661 10.1189 20.772 8.2166C20.755 8.41192 20.7294 8.59876 20.6954 8.7856ZM18.7487 11.6943C20.4739 9.19324 20.4227 8.39494 20.1842 5.12105C20.1842 5.08708 23.1659 11.0956 20.7252 14.5988C18.7956 17.3758 19.0511 18.3228 19.0682 20.9385C19.0682 21.3843 15.9885 15.7113 18.7487 11.6943Z" fill="#E2E2E4"/>
<path fill-rule="evenodd" clip-rule="evenodd" d="M18.7912 3.35031C18.6038 4.35244 18.1608 5.22717 17.2535 6.53927C15.7755 8.66241 16.1077 11.3758 16.6614 13.2059C16.7296 11.8938 17.0874 10.8068 18.4079 8.87897C19.6133 7.14224 19.362 4.68365 18.8679 2.78131C18.8424 2.97239 18.8168 3.16348 18.7912 3.35031Z" fill="black"/>
<path fill-rule="evenodd" clip-rule="evenodd" d="M18.7911 3.35026C18.6037 4.35238 18.1607 5.22712 17.2534 6.53922C15.7753 8.66236 16.1076 11.3758 16.6613 13.2059C16.7295 11.8938 17.0873 10.8068 18.4078 8.87893C19.6133 7.14219 19.3619 4.6836 18.8678 2.78126C18.8423 2.97234 18.8167 3.16343 18.7911 3.35026ZM18.3992 2.23773H19.2512C19.839 4.28444 20.2352 7.13795 18.8252 9.16343C16.8956 11.9405 17.1512 12.8832 17.164 15.5031C17.164 15.949 14.0885 10.2505 16.8445 6.25472C17.9988 4.56895 18.3652 3.65599 18.3907 2.23773H18.3992Z" fill="#E2E2E4"/>
</g>
<defs>
<linearGradient id="paint0_linear_506_180" x1="18.649" y1="39.0192" x2="18.649" y2="32.9941" gradientUnits="userSpaceOnUse">
<stop stop-color="#16ACF2"/>
<stop offset="0.5" stop-color="#1082FF"/>
<stop offset="1" stop-color="#16ACF2"/>
</linearGradient>
<linearGradient id="paint1_linear_506_180" x1="13.188" y1="35.2994" x2="13.188" y2="11.0333" gradientUnits="userSpaceOnUse">
<stop stop-color="#16ACF2"/>
<stop offset="0.5" stop-color="#1082FF"/>
<stop offset="1" stop-color="#16ACF2"/>
</linearGradient>
<linearGradient id="paint2_linear_506_180" x1="18.6298" y1="7.00209" x2="18.6298" y2="0.981247" gradientUnits="userSpaceOnUse">
<stop stop-color="#16ACF2"/>
<stop offset="0.5" stop-color="#1082FF"/>
<stop offset="1" stop-color="#16ACF2"/>
</linearGradient>
<linearGradient id="paint3_linear_506_180" x1="19.6417" y1="18.6412" x2="19.6417" y2="8.20993" gradientUnits="userSpaceOnUse">
<stop stop-color="#16ACF2"/>
<stop offset="0.5" stop-color="#1082FF"/>
<stop offset="1" stop-color="#16ACF2"/>
</linearGradient>
<clipPath id="clip0_506_180">
<rect width="37" height="40" fill="white"/>
</clipPath>
</defs>
</svg>
