<svg width="24" height="24" viewBox="0 0 24 24" fill="none" xmlns="http://www.w3.org/2000/svg">
<path d="M14.7539 16.4465C14.9492 16.6418 14.9492 16.9583 14.7539 17.1536C14.5587 17.3489 14.2421 17.3489 14.0468 17.1536L14.7539 16.4465ZM9.60039 12L9.24684 12.3536L8.89328 12L9.24684 11.6465L9.60039 12ZM14.0468 6.84649C14.2421 6.65123 14.5587 6.65123 14.7539 6.84649C14.9492 7.04176 14.9492 7.35834 14.7539 7.5536L14.0468 6.84649ZM14.0468 17.1536L9.24684 12.3536L9.95394 11.6465L14.7539 16.4465L14.0468 17.1536ZM9.24684 11.6465L14.0468 6.84649L14.7539 7.5536L9.95394 12.3536L9.24684 11.6465Z" fill="#000000"/>
</svg>
