<svg class="chat_icon" width="66" height="66" viewBox="0 0 66 66" fill="none" xmlns="http://www.w3.org/2000/svg">
                <circle cx="33" cy="33" r="32" stroke="#1D1D1B"></circle>
                <path d="M19.7011 35.125L20.6785 35.3361C20.6935 35.2668 20.7011 35.196 20.7011 35.125H19.7011ZM24.1113 40.75V39.75C23.9934 39.75 23.8764 39.7708 23.7658 39.8116L24.1113 40.75ZM18 43L17.0225 42.7889L16.6385 44.5669L18.3455 43.9384L18 43ZM20.7011 31.375C20.7011 26.5093 23.7572 23 27.0515 23V21C22.2267 21 18.7011 25.8853 18.7011 31.375H20.7011ZM47 31.375C47 36.2407 43.9439 39.75 40.6496 39.75V41.75C45.4743 41.75 49 36.8647 49 31.375H47ZM40.6496 23C43.9439 23 47 26.5093 47 31.375H49C49 25.8853 45.4743 21 40.6496 21V23ZM27.0515 23H40.6496V21H27.0515V23ZM40.6496 39.75H27.0515V41.75H40.6496V39.75ZM18.7011 31.375V35.125H20.7011V31.375H18.7011ZM24.1113 41.75H27.0515V39.75H24.1113V41.75ZM23.7658 39.8116L17.6545 42.0616L18.3455 43.9384L24.4568 41.6884L23.7658 39.8116ZM18.9775 43.2111L20.6785 35.3361L18.7236 34.9139L17.0225 42.7889L18.9775 43.2111Z" fill="#1D1D1B"></path>
                <g filter="url(#filter0_d)">
                    <path d="M31 31.5C31 32.3284 30.3284 33 29.5 33C28.6716 33 28 32.3284 28 31.5C28 30.6716 28.6716 30 29.5 30C30.3284 30 31 30.6716 31 31.5Z" fill="#1D1D1B"></path>
                    <path d="M35.5 31.5C35.5 32.3284 34.8284 33 34 33C33.1716 33 32.5 32.3284 32.5 31.5C32.5 30.6716 33.1716 30 34 30C34.8284 30 35.5 30.6716 35.5 31.5Z" fill="#1D1D1B"></path>
                    <path d="M40 31.5C40 32.3284 39.3284 33 38.5 33C37.6716 33 37 32.3284 37 31.5C37 30.6716 37.6716 30 38.5 30C39.3284 30 40 30.6716 40 31.5Z" fill="#1D1D1B"></path>
                </g>
                <defs>
                    <filter id="filter0_d" x="18" y="22" width="32" height="23" filterUnits="userSpaceOnUse" color-interpolation-filters="sRGB">
                        <feFlood flood-opacity="0" result="BackgroundImageFix"></feFlood>
                        <feColorMatrix in="SourceAlpha" type="matrix" values="0 0 0 0 0 0 0 0 0 0 0 0 0 0 0 0 0 0 127 0" result="hardAlpha"></feColorMatrix>
                        <feOffset dy="2"></feOffset>
                        <feGaussianBlur stdDeviation="5"></feGaussianBlur>
                        <feColorMatrix type="matrix" values="0 0 0 0 0 0 0 0 0 0 0 0 0 0 0 0 0 0 0.1 0"></feColorMatrix>
                        <feBlend mode="normal" in2="BackgroundImageFix" result="effect1_dropShadow"></feBlend>
                        <feBlend mode="normal" in="SourceGraphic" in2="effect1_dropShadow" result="shape"></feBlend>
                    </filter>
                </defs>
            </svg>