<svg width="24" height="24" viewBox="0 0 24 24" fill="none" xmlns="http://www.w3.org/2000/svg">
<path d="M7.55277 9.24654C7.35751 9.05128 7.04093 9.05128 6.84567 9.24654C6.6504 9.44181 6.6504 9.75839 6.84567 9.95365L7.55277 9.24654ZM11.9992 14.4001L11.6457 14.7537L11.9992 15.1072L12.3528 14.7537L11.9992 14.4001ZM17.1528 9.95365C17.348 9.75839 17.348 9.44181 17.1528 9.24654C16.9575 9.05128 16.6409 9.05128 16.4457 9.24654L17.1528 9.95365ZM6.84567 9.95365L11.6457 14.7537L12.3528 14.0465L7.55277 9.24654L6.84567 9.95365ZM12.3528 14.7537L17.1528 9.95365L16.4457 9.24654L11.6457 14.0465L12.3528 14.7537Z" fill="#1D1D1B"/>
</svg>
