<svg width="24" height="24" viewBox="0 0 24 24" fill="none" xmlns="http://www.w3.org/2000/svg">
<path d="M9.31738 13.452C9.31738 12.5262 10.4498 12.3483 10.4498 11.886V11.3165M9.31738 13.452H14.4313M9.31738 13.452V20.8902M14.4313 13.452C14.3948 12.3843 13.2624 12.3487 13.2624 11.886V11.3165M14.4313 13.452L14.5365 20.8639M13.2624 11.3165H10.4498M13.2624 11.3165C13.5547 11.2453 13.5181 10.8183 13.2624 10.7827M10.4498 11.3165C10.0845 11.1738 10.2671 10.8534 10.4498 10.7827M13.2624 10.7827H10.4498M13.2624 10.7827V10.6047M13.2624 10.7827C13.698 10.7827 13.9031 10.7452 13.9199 10.7047M10.4498 10.7827C9.96769 10.7827 9.76551 10.7458 9.76062 10.7056M10.4498 10.7827V10.6047M13.2624 10.6047H10.4498M13.2624 10.6047C13.6975 10.6047 13.9398 10.6569 13.9199 10.7047M10.4498 10.6047C10.0317 10.6047 9.75475 10.6575 9.76062 10.7056M13.9199 10.7047V9.96406C13.8973 9.95387 13.8678 9.94409 13.8322 9.93472M13.8322 9.93472V8.50472C13.6998 8.42276 13.3275 8.37322 12.8606 8.34762M13.8322 9.93472C13.1804 9.76321 10.471 9.73133 9.86531 9.91031M9.86531 9.91031C9.81057 9.92649 9.77302 9.94439 9.75572 9.96406L9.76062 10.7056M9.86531 9.91031V8.46898C9.91275 8.42275 10.2991 8.38028 10.815 8.35375M10.815 8.35375C11.0707 8.0063 10.9612 7.29447 10.9612 6.11996C11.1803 5.30118 12.4223 5.3012 12.678 6.11996C12.678 6.97415 12.678 8.04189 12.8606 8.34762M10.815 8.35375C11.431 8.32207 12.2315 8.31311 12.8606 8.34762M9.31738 20.8902V21.1749C9.31738 22.1003 14.5409 22.1359 14.5409 21.1749L14.5365 20.8639M9.31738 20.8902C10.5593 21.1037 13.1163 21.0681 14.5365 20.8639" stroke="white" stroke-linecap="round" stroke-linejoin="round"/>
</svg>
