<svg width="24" height="24" viewBox="0 0 24 24" fill="none" xmlns="http://www.w3.org/2000/svg">
<path fill-rule="evenodd" clip-rule="evenodd" d="M10.5533 14.9985C10.8433 16.7705 12.2698 18.1659 14.0549 18.1659H18.3327H19.4274L21.7599 19.4382L22.6802 19.9401L22.4912 18.9091L21.8883 15.6204V14.3326C21.8883 13.1391 21.375 12.0505 20.5578 11.3409C20.428 11.6694 20.2717 11.9829 20.0918 12.2783C20.5783 12.788 20.8883 13.5105 20.8883 14.3326V15.6659V15.7114L20.8965 15.7561L21.3185 18.0583L19.7944 17.227L19.6824 17.1659H19.5549H18.3327H14.0549C12.8805 17.1659 11.8433 16.2662 11.5697 14.9987L10.5533 14.9985Z" fill="white"/>
<path d="M3 11L3.49029 11.0981C3.49675 11.0658 3.5 11.0329 3.5 11H3ZM6 14V13.5C5.92238 13.5 5.84582 13.5181 5.77639 13.5528L6 14ZM2 16L1.50971 15.9019L1.30922 16.9044L2.22361 16.4472L2 16ZM3.5 9C3.5 6.51472 5.51472 4.5 8 4.5V3.5C4.96243 3.5 2.5 5.96243 2.5 9H3.5ZM19.5 9C19.5 11.4853 17.4853 13.5 15 13.5V14.5C18.0376 14.5 20.5 12.0376 20.5 9H19.5ZM15 4.5C17.4853 4.5 19.5 6.51472 19.5 9H20.5C20.5 5.96243 18.0376 3.5 15 3.5V4.5ZM8 4.5H15V3.5H8V4.5ZM15 13.5H8V14.5H15V13.5ZM2.5 9V11H3.5V9H2.5ZM6 14.5H8V13.5H6V14.5ZM5.77639 13.5528L1.77639 15.5528L2.22361 16.4472L6.22361 14.4472L5.77639 13.5528ZM2.49029 16.0981L3.49029 11.0981L2.50971 10.9019L1.50971 15.9019L2.49029 16.0981Z" fill="white"/>
<path d="M9.65338 8.14548V11.2H8.80005V8.14548H9.65338Z" fill="white"/>
<path d="M12.64 6.40002L10.9334 8.14548V11.2H14.7734L15.2 8.14548H13.0667V6.40002H12.64Z" fill="white"/>
<path d="M12.64 6.40002V5.90002C12.5055 5.90002 12.3766 5.95426 12.2825 6.05047L12.64 6.40002ZM10.9334 8.14548L10.5759 7.79592C10.4845 7.88934 10.4334 8.01482 10.4334 8.14548H10.9334ZM10.9334 11.2H10.4334C10.4334 11.4762 10.6572 11.7 10.9334 11.7V11.2ZM14.7734 11.2V11.7C15.0228 11.7 15.2341 11.5162 15.2686 11.2692L14.7734 11.2ZM15.2 8.14548L15.6952 8.21465C15.7153 8.07137 15.6722 7.92644 15.5773 7.81729C15.4823 7.70814 15.3447 7.64548 15.2 7.64548V8.14548ZM13.0667 8.14548H12.5667C12.5667 8.42162 12.7906 8.64548 13.0667 8.64548V8.14548ZM9.65338 8.14548H10.1534C10.1534 7.86934 9.92952 7.64548 9.65338 7.64548L9.65338 8.14548ZM9.65338 11.2V11.7C9.92952 11.7 10.1534 11.4762 10.1534 11.2H9.65338ZM8.80005 11.2H8.30005C8.30005 11.4762 8.52391 11.7 8.80005 11.7V11.2ZM8.80005 8.14548V7.64548C8.52391 7.64548 8.30005 7.86934 8.30005 8.14548H8.80005ZM13.0667 6.40002H13.5667C13.5667 6.12388 13.3429 5.90002 13.0667 5.90002V6.40002ZM12.2825 6.05047L10.5759 7.79592L11.2909 8.49504L12.9976 6.74958L12.2825 6.05047ZM10.4334 8.14548V11.2H11.4334V8.14548H10.4334ZM10.9334 11.7H14.7734V10.7H10.9334V11.7ZM15.2686 11.2692L15.6952 8.21465L14.7049 8.07631L14.2782 11.1309L15.2686 11.2692ZM15.2 7.64548H13.0667V8.64548H15.2V7.64548ZM9.15338 8.14548V11.2H10.1534V8.14548H9.15338ZM9.65338 10.7H8.80005V11.7H9.65338V10.7ZM9.30005 11.2V8.14548H8.30005V11.2H9.30005ZM8.80005 8.64548H9.65338V7.64548H8.80005V8.64548ZM13.5667 8.14548V6.40002H12.5667V8.14548H13.5667ZM13.0667 5.90002H12.64V6.90002H13.0667V5.90002Z" fill="white"/>
</svg>
