<svg width="50" height="100" viewBox="0 0 50 100" fill="none" xmlns="http://www.w3.org/2000/svg">
<g filter="url(#filter0_d)">
<path d="M19.1058 69.5518C18.8588 70.0458 19.0591 70.6465 19.553 70.8935C20.047 71.1404 20.6477 70.9402 20.8947 70.4462L19.1058 69.5518ZM30.0002 49.999L30.8947 50.4462L31.1183 49.999L30.8947 49.5518L30.0002 49.999ZM20.8947 29.5518C20.6477 29.0578 20.047 28.8576 19.553 29.1046C19.0591 29.3516 18.8588 29.9523 19.1058 30.4462L20.8947 29.5518ZM20.8947 70.4462L30.8947 50.4462L29.1058 49.5518L19.1058 69.5518L20.8947 70.4462ZM30.8947 49.5518L20.8947 29.5518L19.1058 30.4462L29.1058 50.4462L30.8947 49.5518Z" fill="#1D1D1B"/>
</g>
<defs>
<filter id="filter0_d" x="14" y="28.9988" width="22.1183" height="52.0004" filterUnits="userSpaceOnUse" color-interpolation-filters="sRGB">
<feFlood flood-opacity="0" result="BackgroundImageFix"/>
<feColorMatrix in="SourceAlpha" type="matrix" values="0 0 0 0 0 0 0 0 0 0 0 0 0 0 0 0 0 0 127 0" result="hardAlpha"/>
<feOffset dy="5"/>
<feGaussianBlur stdDeviation="2.5"/>
<feColorMatrix type="matrix" values="0 0 0 0 0 0 0 0 0 0 0 0 0 0 0 0 0 0 0.25 0"/>
<feBlend mode="normal" in2="BackgroundImageFix" result="effect1_dropShadow"/>
<feBlend mode="normal" in="SourceGraphic" in2="effect1_dropShadow" result="shape"/>
</filter>
</defs>
</svg>
