<svg width="66" height="66" viewBox="0 0 66 66" fill="none" xmlns="http://www.w3.org/2000/svg">
<circle cx="33" cy="33" r="32" stroke="#1D1D1B"/>
<path d="M23.7071 38.7071C23.3166 39.0976 22.6834 39.0976 22.2929 38.7071C21.9024 38.3166 21.9024 37.6834 22.2929 37.2929L23.7071 38.7071ZM33 28L32.2929 27.2929L33 26.5858L33.7071 27.2929L33 28ZM43.7071 37.2929C44.0976 37.6834 44.0976 38.3166 43.7071 38.7071C43.3166 39.0976 42.6834 39.0976 42.2929 38.7071L43.7071 37.2929ZM22.2929 37.2929L32.2929 27.2929L33.7071 28.7071L23.7071 38.7071L22.2929 37.2929ZM33.7071 27.2929L43.7071 37.2929L42.2929 38.7071L32.2929 28.7071L33.7071 27.2929Z" fill="#1D1D1B"/>
</svg>
