<svg width="40" height="40" viewBox="0 0 40 40" fill="none" xmlns="http://www.w3.org/2000/svg">
<path d="M20 40C31.0457 40 40 31.0457 40 20C40 8.95431 31.0457 0 20 0C8.95431 0 0 8.95431 0 20C0 31.0457 8.95431 40 20 40Z" fill="#4D76A1"/>
<path fill-rule="evenodd" clip-rule="evenodd" d="M19.2449 28.7716H20.8146C20.8146 28.7716 21.2888 28.7196 21.5309 28.4586C21.7537 28.219 21.7466 27.7691 21.7466 27.7691C21.7466 27.7691 21.7159 25.6628 22.6935 25.3526C23.6572 25.0471 24.8946 27.3883 26.2063 28.2885C27.1981 28.9698 27.9518 28.8205 27.9518 28.8205L31.4589 28.7716C31.4589 28.7716 33.2935 28.6586 32.4236 27.2161C32.3523 27.0981 31.917 26.1491 29.816 24.1989C27.617 22.1578 27.9115 22.488 30.5604 18.9574C32.1737 16.8072 32.8186 15.4945 32.6172 14.9323C32.425 14.3968 31.2385 14.5383 31.2385 14.5383L27.2897 14.5629C27.2897 14.5629 26.997 14.523 26.7799 14.6528C26.5678 14.78 26.4312 15.0767 26.4312 15.0767C26.4312 15.0767 25.8062 16.7405 24.9727 18.1556C23.2144 21.1414 22.5113 21.299 22.2239 21.1136C21.5555 20.6815 21.7223 19.3777 21.7223 18.4515C21.7223 15.558 22.1612 14.3515 20.8677 14.0392C20.4385 13.9354 20.1226 13.867 19.0249 13.8559C17.6159 13.8413 16.4234 13.8602 15.7481 14.1911C15.2989 14.411 14.9524 14.9013 15.1634 14.9294C15.4244 14.9644 16.0155 15.0888 16.3289 15.5155C16.7336 16.066 16.7193 17.3024 16.7193 17.3024C16.7193 17.3024 16.9517 20.7086 16.1763 21.1318C15.644 21.422 14.9139 20.8295 13.3463 18.1206C12.543 16.7331 11.9366 15.1993 11.9366 15.1993C11.9366 15.1993 11.8197 14.9127 11.6111 14.7594C11.358 14.5736 11.0043 14.5144 11.0043 14.5144L7.25193 14.539C7.25193 14.539 6.68863 14.5547 6.48185 14.7996C6.29789 15.0175 6.46723 15.4681 6.46723 15.4681C6.46723 15.4681 9.40495 22.3411 12.7313 25.8047C15.7813 28.9802 19.2449 28.7716 19.2449 28.7716Z" fill="white"/>
</svg>
