<svg width="40" height="40" viewBox="0 0 40 40" fill="none" xmlns="http://www.w3.org/2000/svg">
<path d="M39.1759 10.3977C38.7147 8.68413 37.3637 7.33343 35.6505 6.87201C32.5203 6.01538 19.9996 6.01538 19.9996 6.01538C19.9996 6.01538 7.47922 6.01538 4.34904 6.83935C2.66875 7.30047 1.28478 8.68444 0.823666 10.3977C0 13.5276 0 20.0186 0 20.0186C0 20.0186 0 26.5423 0.823666 29.6396C1.28509 31.3528 2.63579 32.7038 4.34935 33.1652C7.51217 34.0219 19.9999 34.0219 19.9999 34.0219C19.9999 34.0219 32.5203 34.0219 35.6505 33.1979C37.364 32.7368 38.7147 31.3858 39.1762 29.6725C39.9998 26.5423 39.9998 20.0516 39.9998 20.0516C39.9998 20.0516 40.0328 13.5276 39.1759 10.3977Z" fill="#FF0000"/>
<path d="M16.0135 26.0163L26.4252 20.0196L16.0135 14.0229V26.0163Z" fill="white"/>
</svg>
